<?xml version="1.0" encoding="UTF-8"?>
<svg width="280px" height="60px" viewBox="0 0 280 60" version="1.1" xmlns="http://www.w3.org/2000/svg" xmlns:xlink="http://www.w3.org/1999/xlink">
    <title>hkcrc_logo</title>
    <defs>
        <polygon id="path-1" points="1.77635684e-15 0 33.4554572 0 33.4554572 59.9999091 1.77635684e-15 59.9999091"></polygon>
        <polygon id="path-3" points="-3.55271368e-15 0 35.9547609 0 35.9547609 32.5047927 -3.55271368e-15 32.5047927"></polygon>
    </defs>
    <g id="Desktop" stroke="none" stroke-width="1" fill="none" fill-rule="evenodd">
        <g id="0430_desktop_homepage_menu" transform="translate(-66.000000, -35.000000)">
            <g id="hkcrc_logo" transform="translate(66.000000, 35.000000)">
                <g id="Group-9">
                    <g id="Group-3" transform="translate(13.284284, 0.000000)">
                        <mask id="mask-2" fill="white">
                            <use xlink:href="#path-1"></use>
                        </mask>
                        <g id="Clip-2"></g>
                        <path d="M32.5794572,46.7089 C32.5794572,46.7089 27.4054572,63.6409 13.5254572,59.2829 C2.67545724,55.5209 -4.12954276,34.3839 2.80845724,13.7699 C7.68345724,-0.0001 16.4744572,0.1359 17.7594572,-0.0001 C22.9634572,0.2079 26.5244572,3.3619 30.2794572,8.7089 C30.2794572,8.7089 32.4544572,13.1689 33.4554572,15.8399 C33.4554572,15.8399 28.0214572,4.8029 19.5154572,5.2899 C11.0094572,5.7759 5.92145724,21.2489 6.88745724,33.7319 C7.85245724,46.2169 12.3724572,53.9379 19.8564572,55.3459 C27.3414572,56.7519 32.5794572,46.7089 32.5794572,46.7089" id="Fill-1" fill="#4B83B8" mask="url(#mask-2)"></path>
                    </g>
                    <path d="M14.5170413,45.6552 C14.5170413,45.6552 12.4320413,42.5932 12.3640413,38.0112 C12.3640413,38.0112 4.32004135,34.2782 5.53104135,27.1312 C5.53104135,27.1312 5.88504135,22.8282 12.6900413,19.1122 C12.6900413,19.1122 12.5980413,18.7012 12.7840413,18.3972 C12.9710413,18.0932 2.95104135,21.9492 0.679041345,28.1142 C-1.59295865,34.2782 2.37604135,38.2782 4.66404135,40.3882 C6.95204135,42.4992 12.6750413,45.3052 14.5170413,45.6552" id="Fill-4" fill="#6DAB87"></path>
                    <g id="Group-8" transform="translate(24.044980, 14.848754)">
                        <mask id="mask-4" fill="white">
                            <use xlink:href="#path-3"></use>
                        </mask>
                        <g id="Clip-7"></g>
                        <path d="M25.0604609,3.44454618 C25.0604609,3.44454618 36.2734609,11.4585462 31.0254609,19.0695462 C26.1504609,26.1375462 11.8524609,23.9635462 8.40246091,22.7175462 C8.13846091,22.6215462 7.93546091,22.5305462 7.80746091,22.4505462 C7.80746091,22.4505462 7.93846091,22.4675462 8.17446091,22.4855462 C10.3804609,22.6485462 21.8124609,22.9445462 21.9564609,11.5905462 C22.1144609,-0.975453823 2.78546091,0.0185461771 2.78546091,0.0185461771 C2.78546091,0.0185461771 0.521460905,4.18254618 0.521460905,7.37154618 C0.521460905,7.37154618 14.1484609,6.19754618 14.0274609,11.6595462 C13.9374609,15.7315462 9.14346091,15.9875462 4.51246091,15.7625462 C2.93046091,15.6855462 1.36646091,15.5525462 0.0164609053,15.4955462 C0.0164609053,15.4955462 -0.0135390947,17.0075462 0.00746090535,19.1605462 C0.313460905,22.3595462 1.20446091,26.8655462 3.50146091,32.2595462 C3.55146091,32.2835462 3.59846091,32.3125462 3.64846091,32.3355462 C3.75246091,32.3805462 3.90346091,32.4205462 4.09346091,32.4545462 C6.35846091,32.5585462 9.73746091,32.5445462 13.5854609,31.9835462 C19.6444609,31.0975462 26.8604609,28.8495462 32.7004609,23.5365462 C41.0564609,15.3375462 31.4214609,5.67054618 25.0604609,3.44454618" id="Fill-6" fill="#6DAB87" mask="url(#mask-4)"></path>
                    </g>
                </g>
                <path d="M75.2,19 L75.2,17.67 L74.164,17.67 L74.164,15.038 L78.462,15.038 L78.462,17.67 L77.412,17.67 L77.412,19 L81.052,19 L81.052,17.67 L80.016,17.67 L80.016,11.23 L81.052,11.23 L81.052,9.9 L77.412,9.9 L77.412,11.23 L78.462,11.23 L78.462,13.722 L74.164,13.722 L74.164,11.23 L75.2,11.23 L75.2,9.9 L71.56,9.9 L71.56,11.23 L72.61,11.23 L72.61,17.67 L71.56,17.67 L71.56,19 L75.2,19 Z M86.624,19.14 C88.0613333,19.14 89.1953333,18.678 90.026,17.754 C90.8566667,16.83 91.272,15.724 91.272,14.436 C91.272,13.1573333 90.859,12.0583333 90.033,11.139 C89.207,10.2196667 88.0846667,9.76 86.666,9.76 C85.266,9.76 84.146,10.2126667 83.306,11.118 C82.466,12.0233333 82.046,13.1386667 82.046,14.464 C82.046,15.7333333 82.4473333,16.83 83.25,17.754 C84.0526667,18.678 85.1773333,19.14 86.624,19.14 Z M86.694,17.768 C85.6766667,17.768 84.9276667,17.4366667 84.447,16.774 C83.9663333,16.1113333 83.726,15.3273333 83.726,14.422 C83.726,13.4886667 83.971,12.707 84.461,12.077 C84.951,11.447 85.6813333,11.132 86.652,11.132 C87.576,11.132 88.297,11.4353333 88.815,12.042 C89.333,12.6486667 89.592,13.4606667 89.592,14.478 C89.592,15.43 89.3493333,16.2163333 88.864,16.837 C88.3786667,17.4576667 87.6553333,17.768 86.694,17.768 Z M99.84,19.014 L100.736,19 L100.736,11.23 L101.786,11.23 L101.786,9.9 L97.95,9.9 L97.95,11.23 L99.28,11.23 L99.28,15.92 L99.224,15.92 L94.422,9.9 L92.14,9.9 L92.14,11.23 L93.288,11.23 L93.288,17.67 L92.28,17.67 L92.28,19 L96.074,19 L96.074,17.67 L94.744,17.67 L94.744,12.7 L94.8,12.7 L99.84,19.014 Z M106.826,19.14 C107.442,19.14 107.978667,19.028 108.436,18.804 C108.893333,18.58 109.262,18.2906667 109.542,17.936 L109.542,17.936 L109.696,19 L110.9,19 L110.9,15.43 L111.446,15.43 L111.446,14.1 L107.414,14.1 L107.414,15.43 L109.346,15.43 L109.346,15.766 C109.346,16.3446667 109.145333,16.823 108.744,17.201 C108.342667,17.579 107.792,17.768 107.092,17.768 C106.261333,17.768 105.589333,17.4833333 105.076,16.914 C104.562667,16.3446667 104.306,15.5326667 104.306,14.478 C104.306,13.4046667 104.576667,12.5786667 105.118,12 C105.659333,11.4213333 106.354667,11.132 107.204,11.132 C108.044,11.132 108.734667,11.3186667 109.276,11.692 L109.276,11.692 L109.528,12.84 L110.802,12.714 L110.55,10.838 C110.232667,10.5393333 109.784667,10.285 109.206,10.075 C108.627333,9.865 107.969333,9.76 107.232,9.76 C105.776,9.76 104.646667,10.2266667 103.844,11.16 C103.041333,12.0933333 102.64,13.2086667 102.64,14.506 C102.64,15.8126667 103.020333,16.9116667 103.781,17.803 C104.541667,18.6943333 105.556667,19.14 106.826,19.14 Z M118.67,19 L118.67,17.67 L117.802,17.67 L117.802,15.024 L119.062,15.024 L121.022,17.67 L120.084,17.67 L120.084,19 L123.794,19 L123.794,17.67 L122.814,17.67 L120.266,14.24 L122.604,11.23 L123.626,11.23 L123.626,9.9 L120.07,9.9 L120.07,11.23 L120.966,11.23 L119.076,13.75 L117.802,13.75 L117.802,11.23 L118.712,11.23 L118.712,9.9 L115.198,9.9 L115.198,11.23 L116.248,11.23 L116.248,17.67 L115.198,17.67 L115.198,19 L118.67,19 Z M128.904,19.14 C130.341333,19.14 131.475333,18.678 132.306,17.754 C133.136667,16.83 133.552,15.724 133.552,14.436 C133.552,13.1573333 133.139,12.0583333 132.313,11.139 C131.487,10.2196667 130.364667,9.76 128.946,9.76 C127.546,9.76 126.426,10.2126667 125.586,11.118 C124.746,12.0233333 124.326,13.1386667 124.326,14.464 C124.326,15.7333333 124.727333,16.83 125.53,17.754 C126.332667,18.678 127.457333,19.14 128.904,19.14 Z M128.974,17.768 C127.956667,17.768 127.207667,17.4366667 126.727,16.774 C126.246333,16.1113333 126.006,15.3273333 126.006,14.422 C126.006,13.4886667 126.251,12.707 126.741,12.077 C127.231,11.447 127.961333,11.132 128.932,11.132 C129.856,11.132 130.577,11.4353333 131.095,12.042 C131.613,12.6486667 131.872,13.4606667 131.872,14.478 C131.872,15.43 131.629333,16.2163333 131.144,16.837 C130.658667,17.4576667 129.935333,17.768 128.974,17.768 Z M142.12,19.014 L143.016,19 L143.016,11.23 L144.066,11.23 L144.066,9.9 L140.23,9.9 L140.23,11.23 L141.56,11.23 L141.56,15.92 L141.504,15.92 L136.702,9.9 L134.42,9.9 L134.42,11.23 L135.568,11.23 L135.568,17.67 L134.56,17.67 L134.56,19 L138.354,19 L138.354,17.67 L137.024,17.67 L137.024,12.7 L137.08,12.7 L142.12,19.014 Z M149.106,19.14 C149.722,19.14 150.258667,19.028 150.716,18.804 C151.173333,18.58 151.542,18.2906667 151.822,17.936 L151.822,17.936 L151.976,19 L153.18,19 L153.18,15.43 L153.726,15.43 L153.726,14.1 L149.694,14.1 L149.694,15.43 L151.626,15.43 L151.626,15.766 C151.626,16.3446667 151.425333,16.823 151.024,17.201 C150.622667,17.579 150.072,17.768 149.372,17.768 C148.541333,17.768 147.869333,17.4833333 147.356,16.914 C146.842667,16.3446667 146.586,15.5326667 146.586,14.478 C146.586,13.4046667 146.856667,12.5786667 147.398,12 C147.939333,11.4213333 148.634667,11.132 149.484,11.132 C150.324,11.132 151.014667,11.3186667 151.556,11.692 L151.556,11.692 L151.808,12.84 L153.082,12.714 L152.83,10.838 C152.512667,10.5393333 152.064667,10.285 151.486,10.075 C150.907333,9.865 150.249333,9.76 149.512,9.76 C148.056,9.76 146.926667,10.2266667 146.124,11.16 C145.321333,12.0933333 144.92,13.2086667 144.92,14.506 C144.92,15.8126667 145.300333,16.9116667 146.061,17.803 C146.821667,18.6943333 147.836667,19.14 149.106,19.14 Z M161.874,19.14 C162.518,19.14 163.141,19.049 163.743,18.867 C164.345,18.685 164.809333,18.44 165.136,18.132 L165.136,18.132 L165.332,16.144 L164.058,16.018 L163.834,17.376 C163.358,17.6373333 162.746667,17.768 162,17.768 C161.104,17.768 160.380667,17.4903333 159.83,16.935 C159.279333,16.3796667 159.004,15.5606667 159.004,14.478 C159.004,13.442 159.263,12.6253333 159.781,12.028 C160.299,11.4306667 160.987333,11.132 161.846,11.132 C162.63,11.132 163.302,11.314 163.862,11.678 L163.862,11.678 L164.086,12.938 L165.36,12.812 L165.122,10.838 C164.804667,10.5486667 164.375333,10.2966667 163.834,10.082 C163.292667,9.86733333 162.639333,9.76 161.874,9.76 C160.828667,9.76 159.97,10.0026667 159.298,10.488 C158.626,10.9733333 158.131333,11.5846667 157.814,12.322 C157.496667,13.0593333 157.338,13.806 157.338,14.562 C157.338,15.906 157.765,17.005 158.619,17.859 C159.473,18.713 160.558,19.14 161.874,19.14 Z M173.438,19 L173.718,16.368 L172.388,16.256 L172.108,17.67 L169.112,17.67 L169.112,15.08 L173.116,15.08 L173.116,13.75 L169.112,13.75 L169.112,11.23 L172.01,11.23 L172.29,12.644 L173.62,12.532 L173.34,9.9 L166.508,9.9 L166.508,11.23 L167.558,11.23 L167.558,17.67 L166.508,17.67 L166.508,19 L173.438,19 Z M182.384,19.014 L183.28,19 L183.28,11.23 L184.33,11.23 L184.33,9.9 L180.494,9.9 L180.494,11.23 L181.824,11.23 L181.824,15.92 L181.768,15.92 L176.966,9.9 L174.684,9.9 L174.684,11.23 L175.832,11.23 L175.832,17.67 L174.824,17.67 L174.824,19 L178.618,19 L178.618,17.67 L177.288,17.67 L177.288,12.7 L177.344,12.7 L182.384,19.014 Z M191.526,19 L191.526,17.67 L190,17.67 L190,11.23 L191.778,11.23 L192.058,12.98 L193.402,12.868 L193.122,9.9 L185.324,9.9 L185.044,12.868 L186.374,12.98 L186.654,11.23 L188.446,11.23 L188.446,17.67 L186.976,17.67 L186.976,19 L191.526,19 Z M201.186,19 L201.466,16.368 L200.136,16.256 L199.856,17.67 L196.86,17.67 L196.86,15.08 L200.864,15.08 L200.864,13.75 L196.86,13.75 L196.86,11.23 L199.758,11.23 L200.038,12.644 L201.368,12.532 L201.088,9.9 L194.256,9.9 L194.256,11.23 L195.306,11.23 L195.306,17.67 L194.256,17.67 L194.256,19 L201.186,19 Z M206.198,19 L206.198,17.67 L205.134,17.67 L205.134,15.402 L206.632,15.402 L208.508,19 L210.636,19 L210.636,17.67 L209.516,17.67 L208.13,15.08 C208.699333,14.8933333 209.145,14.583 209.467,14.149 C209.789,13.715 209.95,13.1946667 209.95,12.588 C209.95,11.7386667 209.67,11.0783333 209.11,10.607 C208.55,10.1356667 207.705333,9.9 206.576,9.9 L206.576,9.9 L202.53,9.9 L202.53,11.23 L203.58,11.23 L203.58,17.67 L202.53,17.67 L202.53,19 L206.198,19 Z M206.31,14.156 L205.134,14.156 L205.134,11.23 L206.324,11.23 C207.042667,11.23 207.551333,11.335 207.85,11.545 C208.148667,11.755 208.298,12.1166667 208.298,12.63 C208.298,13.1153333 208.153333,13.491 207.864,13.757 C207.574667,14.023 207.056667,14.156 206.31,14.156 L206.31,14.156 Z M75.69,33 L75.69,31.67 L74.164,31.67 L74.164,29.472 L78.112,29.472 L78.112,28.156 L74.164,28.156 L74.164,25.23 L76.978,25.23 L77.258,26.756 L78.588,26.63 L78.308,23.9 L71.56,23.9 L71.56,25.23 L72.61,25.23 L72.61,31.67 L71.56,31.67 L71.56,33 L75.69,33 Z M83.894,33.14 C85.3313333,33.14 86.4653333,32.678 87.296,31.754 C88.1266667,30.83 88.542,29.724 88.542,28.436 C88.542,27.1573333 88.129,26.0583333 87.303,25.139 C86.477,24.2196667 85.3546667,23.76 83.936,23.76 C82.536,23.76 81.416,24.2126667 80.576,25.118 C79.736,26.0233333 79.316,27.1386667 79.316,28.464 C79.316,29.7333333 79.7173333,30.83 80.52,31.754 C81.3226667,32.678 82.4473333,33.14 83.894,33.14 Z M83.964,31.768 C82.9466667,31.768 82.1976667,31.4366667 81.717,30.774 C81.2363333,30.1113333 80.996,29.3273333 80.996,28.422 C80.996,27.4886667 81.241,26.707 81.731,26.077 C82.221,25.447 82.9513333,25.132 83.922,25.132 C84.846,25.132 85.567,25.4353333 86.085,26.042 C86.603,26.6486667 86.862,27.4606667 86.862,28.478 C86.862,29.43 86.6193333,30.2163333 86.134,30.837 C85.6486667,31.4576667 84.9253333,31.768 83.964,31.768 Z M93.176,33 L93.176,31.67 L92.112,31.67 L92.112,29.402 L93.61,29.402 L95.486,33 L97.614,33 L97.614,31.67 L96.494,31.67 L95.108,29.08 C95.6773333,28.8933333 96.123,28.583 96.445,28.149 C96.767,27.715 96.928,27.1946667 96.928,26.588 C96.928,25.7386667 96.648,25.0783333 96.088,24.607 C95.528,24.1356667 94.6833333,23.9 93.554,23.9 L93.554,23.9 L89.508,23.9 L89.508,25.23 L90.558,25.23 L90.558,31.67 L89.508,31.67 L89.508,33 L93.176,33 Z M93.288,28.156 L92.112,28.156 L92.112,25.23 L93.302,25.23 C94.0206667,25.23 94.5293333,25.335 94.828,25.545 C95.1266667,25.755 95.276,26.1166667 95.276,26.63 C95.276,27.1153333 95.1313333,27.491 94.842,27.757 C94.5526667,28.023 94.0346667,28.156 93.288,28.156 L93.288,28.156 Z M105.552,33.14 C106.196,33.14 106.819,33.049 107.421,32.867 C108.023,32.685 108.487333,32.44 108.814,32.132 L108.814,32.132 L109.01,30.144 L107.736,30.018 L107.512,31.376 C107.036,31.6373333 106.424667,31.768 105.678,31.768 C104.782,31.768 104.058667,31.4903333 103.508,30.935 C102.957333,30.3796667 102.682,29.5606667 102.682,28.478 C102.682,27.442 102.941,26.6253333 103.459,26.028 C103.977,25.4306667 104.665333,25.132 105.524,25.132 C106.308,25.132 106.98,25.314 107.54,25.678 L107.54,25.678 L107.764,26.938 L109.038,26.812 L108.8,24.838 C108.482667,24.5486667 108.053333,24.2966667 107.512,24.082 C106.970667,23.8673333 106.317333,23.76 105.552,23.76 C104.506667,23.76 103.648,24.0026667 102.976,24.488 C102.304,24.9733333 101.809333,25.5846667 101.492,26.322 C101.174667,27.0593333 101.016,27.806 101.016,28.562 C101.016,29.906 101.443,31.005 102.297,31.859 C103.151,32.713 104.236,33.14 105.552,33.14 Z M114.624,33.14 C116.061333,33.14 117.195333,32.678 118.026,31.754 C118.856667,30.83 119.272,29.724 119.272,28.436 C119.272,27.1573333 118.859,26.0583333 118.033,25.139 C117.207,24.2196667 116.084667,23.76 114.666,23.76 C113.266,23.76 112.146,24.2126667 111.306,25.118 C110.466,26.0233333 110.046,27.1386667 110.046,28.464 C110.046,29.7333333 110.447333,30.83 111.25,31.754 C112.052667,32.678 113.177333,33.14 114.624,33.14 Z M114.694,31.768 C113.676667,31.768 112.927667,31.4366667 112.447,30.774 C111.966333,30.1113333 111.726,29.3273333 111.726,28.422 C111.726,27.4886667 111.971,26.707 112.461,26.077 C112.951,25.447 113.681333,25.132 114.652,25.132 C115.576,25.132 116.297,25.4353333 116.815,26.042 C117.333,26.6486667 117.592,27.4606667 117.592,28.478 C117.592,29.43 117.349333,30.2163333 116.864,30.837 C116.378667,31.4576667 115.655333,31.768 114.694,31.768 Z M127.84,33.014 L128.736,33 L128.736,25.23 L129.786,25.23 L129.786,23.9 L125.95,23.9 L125.95,25.23 L127.28,25.23 L127.28,29.92 L127.224,29.92 L122.422,23.9 L120.14,23.9 L120.14,25.23 L121.288,25.23 L121.288,31.67 L120.28,31.67 L120.28,33 L124.074,33 L124.074,31.67 L122.744,31.67 L122.744,26.7 L122.8,26.7 L127.84,33.014 Z M133.93,33.14 C134.966,33.14 135.799,32.8973333 136.429,32.412 C137.059,31.9266667 137.374,31.2313333 137.374,30.326 C137.374,29.5793333 137.194333,29.0263333 136.835,28.667 C136.475667,28.3076667 136.053333,28.058 135.568,27.918 C135.082667,27.778 134.648667,27.666 134.266,27.582 C133.818,27.4793333 133.414333,27.3463333 133.055,27.183 C132.695667,27.0196667 132.516,26.7093333 132.516,26.252 C132.516,25.86 132.660667,25.5753333 132.95,25.398 C133.239333,25.2206667 133.603333,25.132 134.042,25.132 C134.284667,25.132 134.536667,25.16 134.798,25.216 C135.059333,25.272 135.320667,25.3746667 135.582,25.524 L135.582,25.524 L135.708,26.7 L136.954,26.588 L136.87,24.67 C136.571333,24.3993333 136.158333,24.18 135.631,24.012 C135.103667,23.844 134.56,23.76 134,23.76 C133.197333,23.76 132.471667,23.9676667 131.823,24.383 C131.174333,24.7983333 130.85,25.482 130.85,26.434 C130.85,27.0686667 130.994667,27.5493333 131.284,27.876 C131.573333,28.2026667 131.937333,28.436 132.376,28.576 C132.814667,28.716 133.248667,28.828 133.678,28.912 C134.21,29.0146667 134.681333,29.1616667 135.092,29.353 C135.502667,29.5443333 135.708,29.9246667 135.708,30.494 C135.708,31.0166667 135.528333,31.3643333 135.169,31.537 C134.809667,31.7096667 134.359333,31.796 133.818,31.796 C133.594,31.796 133.353667,31.775 133.097,31.733 C132.840333,31.691 132.558,31.5906667 132.25,31.432 L132.25,31.432 L132.278,30.312 L131.032,30.186 L130.78,32.272 C131.116,32.552 131.571,32.7666667 132.145,32.916 C132.719,33.0653333 133.314,33.14 133.93,33.14 Z M144.654,33 L144.654,31.67 L143.128,31.67 L143.128,25.23 L144.906,25.23 L145.186,26.98 L146.53,26.868 L146.25,23.9 L138.452,23.9 L138.172,26.868 L139.502,26.98 L139.782,25.23 L141.574,25.23 L141.574,31.67 L140.104,31.67 L140.104,33 L144.654,33 Z M151.052,33 L151.052,31.67 L149.988,31.67 L149.988,29.402 L151.486,29.402 L153.362,33 L155.49,33 L155.49,31.67 L154.37,31.67 L152.984,29.08 C153.553333,28.8933333 153.999,28.583 154.321,28.149 C154.643,27.715 154.804,27.1946667 154.804,26.588 C154.804,25.7386667 154.524,25.0783333 153.964,24.607 C153.404,24.1356667 152.559333,23.9 151.43,23.9 L151.43,23.9 L147.384,23.9 L147.384,25.23 L148.434,25.23 L148.434,31.67 L147.384,31.67 L147.384,33 L151.052,33 Z M151.164,28.156 L149.988,28.156 L149.988,25.23 L151.178,25.23 C151.896667,25.23 152.405333,25.335 152.704,25.545 C153.002667,25.755 153.152,26.1166667 153.152,26.63 C153.152,27.1153333 153.007333,27.491 152.718,27.757 C152.428667,28.023 151.910667,28.156 151.164,28.156 L151.164,28.156 Z M160.628,33.14 C161.58,33.14 162.333667,32.9486667 162.889,32.566 C163.444333,32.1833333 163.841,31.6956667 164.079,31.103 C164.317,30.5103333 164.436,29.892 164.436,29.248 L164.436,29.248 L164.436,25.23 L165.276,25.23 L165.276,23.9 L161.818,23.9 L161.818,25.23 L162.98,25.23 L162.98,29.248 C162.98,30.0413333 162.793333,30.6596667 162.42,31.103 C162.046667,31.5463333 161.477333,31.768 160.712,31.768 C159.928,31.768 159.363333,31.5463333 159.018,31.103 C158.672667,30.6596667 158.5,30.0786667 158.5,29.36 L158.5,29.36 L158.5,25.23 L159.634,25.23 L159.634,23.9 L156.078,23.9 L156.078,25.23 L156.946,25.23 L156.946,29.402 C156.946,30.382 157.216667,31.25 157.758,32.006 C158.299333,32.762 159.256,33.14 160.628,33.14 Z M170.666,33.14 C171.31,33.14 171.933,33.049 172.535,32.867 C173.137,32.685 173.601333,32.44 173.928,32.132 L173.928,32.132 L174.124,30.144 L172.85,30.018 L172.626,31.376 C172.15,31.6373333 171.538667,31.768 170.792,31.768 C169.896,31.768 169.172667,31.4903333 168.622,30.935 C168.071333,30.3796667 167.796,29.5606667 167.796,28.478 C167.796,27.442 168.055,26.6253333 168.573,26.028 C169.091,25.4306667 169.779333,25.132 170.638,25.132 C171.422,25.132 172.094,25.314 172.654,25.678 L172.654,25.678 L172.878,26.938 L174.152,26.812 L173.914,24.838 C173.596667,24.5486667 173.167333,24.2966667 172.626,24.082 C172.084667,23.8673333 171.431333,23.76 170.666,23.76 C169.620667,23.76 168.762,24.0026667 168.09,24.488 C167.418,24.9733333 166.923333,25.5846667 166.606,26.322 C166.288667,27.0593333 166.13,27.806 166.13,28.562 C166.13,29.906 166.557,31.005 167.411,31.859 C168.265,32.713 169.35,33.14 170.666,33.14 Z M181.516,33 L181.516,31.67 L179.99,31.67 L179.99,25.23 L181.768,25.23 L182.048,26.98 L183.392,26.868 L183.112,23.9 L175.314,23.9 L175.034,26.868 L176.364,26.98 L176.644,25.23 L178.436,25.23 L178.436,31.67 L176.966,31.67 L176.966,33 L181.516,33 Z M187.886,33 L187.886,31.67 L186.85,31.67 L186.85,25.23 L187.886,25.23 L187.886,23.9 L184.246,23.9 L184.246,25.23 L185.296,25.23 L185.296,31.67 L184.246,31.67 L184.246,33 L187.886,33 Z M193.458,33.14 C194.895333,33.14 196.029333,32.678 196.86,31.754 C197.690667,30.83 198.106,29.724 198.106,28.436 C198.106,27.1573333 197.693,26.0583333 196.867,25.139 C196.041,24.2196667 194.918667,23.76 193.5,23.76 C192.1,23.76 190.98,24.2126667 190.14,25.118 C189.3,26.0233333 188.88,27.1386667 188.88,28.464 C188.88,29.7333333 189.281333,30.83 190.084,31.754 C190.886667,32.678 192.011333,33.14 193.458,33.14 Z M193.528,31.768 C192.510667,31.768 191.761667,31.4366667 191.281,30.774 C190.800333,30.1113333 190.56,29.3273333 190.56,28.422 C190.56,27.4886667 190.805,26.707 191.295,26.077 C191.785,25.447 192.515333,25.132 193.486,25.132 C194.41,25.132 195.131,25.4353333 195.649,26.042 C196.167,26.6486667 196.426,27.4606667 196.426,28.478 C196.426,29.43 196.183333,30.2163333 195.698,30.837 C195.212667,31.4576667 194.489333,31.768 193.528,31.768 Z M206.674,33.014 L207.57,33 L207.57,25.23 L208.62,25.23 L208.62,23.9 L204.784,23.9 L204.784,25.23 L206.114,25.23 L206.114,29.92 L206.058,29.92 L201.256,23.9 L198.974,23.9 L198.974,25.23 L200.122,25.23 L200.122,31.67 L199.114,31.67 L199.114,33 L202.908,33 L202.908,31.67 L201.578,31.67 L201.578,26.7 L201.634,26.7 L206.674,33.014 Z M216.096,33 L216.096,31.67 L215.032,31.67 L215.032,29.402 L216.53,29.402 L218.406,33 L220.534,33 L220.534,31.67 L219.414,31.67 L218.028,29.08 C218.597333,28.8933333 219.043,28.583 219.365,28.149 C219.687,27.715 219.848,27.1946667 219.848,26.588 C219.848,25.7386667 219.568,25.0783333 219.008,24.607 C218.448,24.1356667 217.603333,23.9 216.474,23.9 L216.474,23.9 L212.428,23.9 L212.428,25.23 L213.478,25.23 L213.478,31.67 L212.428,31.67 L212.428,33 L216.096,33 Z M216.208,28.156 L215.032,28.156 L215.032,25.23 L216.222,25.23 C216.940667,25.23 217.449333,25.335 217.748,25.545 C218.046667,25.755 218.196,26.1166667 218.196,26.63 C218.196,27.1153333 218.051333,27.491 217.762,27.757 C217.472667,28.023 216.954667,28.156 216.208,28.156 L216.208,28.156 Z M225.686,33.14 C227.123333,33.14 228.257333,32.678 229.088,31.754 C229.918667,30.83 230.334,29.724 230.334,28.436 C230.334,27.1573333 229.921,26.0583333 229.095,25.139 C228.269,24.2196667 227.146667,23.76 225.728,23.76 C224.328,23.76 223.208,24.2126667 222.368,25.118 C221.528,26.0233333 221.108,27.1386667 221.108,28.464 C221.108,29.7333333 221.509333,30.83 222.312,31.754 C223.114667,32.678 224.239333,33.14 225.686,33.14 Z M225.756,31.768 C224.738667,31.768 223.989667,31.4366667 223.509,30.774 C223.028333,30.1113333 222.788,29.3273333 222.788,28.422 C222.788,27.4886667 223.033,26.707 223.523,26.077 C224.013,25.447 224.743333,25.132 225.714,25.132 C226.638,25.132 227.359,25.4353333 227.877,26.042 C228.395,26.6486667 228.654,27.4606667 228.654,28.478 C228.654,29.43 228.411333,30.2163333 227.926,30.837 C227.440667,31.4576667 226.717333,31.768 225.756,31.768 Z M235.892,33 C236.918667,33 237.681667,32.7386667 238.181,32.216 C238.680333,31.6933333 238.93,31.068 238.93,30.34 C238.93,29.7426667 238.766667,29.234 238.44,28.814 C238.113333,28.394 237.623333,28.1326667 236.97,28.03 L236.97,28.03 L236.97,27.974 C237.474,27.8806667 237.870667,27.6566667 238.16,27.302 C238.449333,26.9473333 238.594,26.532 238.594,26.056 C238.594,25.4026667 238.349,24.88 237.859,24.488 C237.369,24.096 236.694667,23.9 235.836,23.9 L235.836,23.9 L231.3,23.9 L231.3,25.23 L232.35,25.23 L232.35,31.67 L231.3,31.67 L231.3,33 L235.892,33 Z M235.36,27.722 L233.904,27.722 L233.904,25.23 L235.458,25.23 C235.887333,25.23 236.239667,25.314 236.515,25.482 C236.790333,25.65 236.928,25.972 236.928,26.448 C236.928,26.8213333 236.799667,27.127 236.543,27.365 C236.286333,27.603 235.892,27.722 235.36,27.722 L235.36,27.722 Z M235.514,31.67 L233.904,31.67 L233.904,28.94 L235.724,28.94 C236.750667,28.94 237.264,29.388 237.264,30.284 C237.264,31.208 236.680667,31.67 235.514,31.67 L235.514,31.67 Z M244.348,33.14 C245.785333,33.14 246.919333,32.678 247.75,31.754 C248.580667,30.83 248.996,29.724 248.996,28.436 C248.996,27.1573333 248.583,26.0583333 247.757,25.139 C246.931,24.2196667 245.808667,23.76 244.39,23.76 C242.99,23.76 241.87,24.2126667 241.03,25.118 C240.19,26.0233333 239.77,27.1386667 239.77,28.464 C239.77,29.7333333 240.171333,30.83 240.974,31.754 C241.776667,32.678 242.901333,33.14 244.348,33.14 Z M244.418,31.768 C243.400667,31.768 242.651667,31.4366667 242.171,30.774 C241.690333,30.1113333 241.45,29.3273333 241.45,28.422 C241.45,27.4886667 241.695,26.707 242.185,26.077 C242.675,25.447 243.405333,25.132 244.376,25.132 C245.3,25.132 246.021,25.4353333 246.539,26.042 C247.057,26.6486667 247.316,27.4606667 247.316,28.478 C247.316,29.43 247.073333,30.2163333 246.588,30.837 C246.102667,31.4576667 245.379333,31.768 244.418,31.768 Z M256.178,33 L256.178,31.67 L254.652,31.67 L254.652,25.23 L256.43,25.23 L256.71,26.98 L258.054,26.868 L257.774,23.9 L249.976,23.9 L249.696,26.868 L251.026,26.98 L251.306,25.23 L253.098,25.23 L253.098,31.67 L251.628,31.67 L251.628,33 L256.178,33 Z M262.548,33 L262.548,31.67 L261.512,31.67 L261.512,25.23 L262.548,25.23 L262.548,23.9 L258.908,23.9 L258.908,25.23 L259.958,25.23 L259.958,31.67 L258.908,31.67 L258.908,33 L262.548,33 Z M268.078,33.14 C268.722,33.14 269.345,33.049 269.947,32.867 C270.549,32.685 271.013333,32.44 271.34,32.132 L271.34,32.132 L271.536,30.144 L270.262,30.018 L270.038,31.376 C269.562,31.6373333 268.950667,31.768 268.204,31.768 C267.308,31.768 266.584667,31.4903333 266.034,30.935 C265.483333,30.3796667 265.208,29.5606667 265.208,28.478 C265.208,27.442 265.467,26.6253333 265.985,26.028 C266.503,25.4306667 267.191333,25.132 268.05,25.132 C268.834,25.132 269.506,25.314 270.066,25.678 L270.066,25.678 L270.29,26.938 L271.564,26.812 L271.326,24.838 C271.008667,24.5486667 270.579333,24.2966667 270.038,24.082 C269.496667,23.8673333 268.843333,23.76 268.078,23.76 C267.032667,23.76 266.174,24.0026667 265.502,24.488 C264.83,24.9733333 264.335333,25.5846667 264.018,26.322 C263.700667,27.0593333 263.542,27.806 263.542,28.562 C263.542,29.906 263.969,31.005 264.823,31.859 C265.677,32.713 266.762,33.14 268.078,33.14 Z M275.876,33.14 C276.912,33.14 277.745,32.8973333 278.375,32.412 C279.005,31.9266667 279.32,31.2313333 279.32,30.326 C279.32,29.5793333 279.140333,29.0263333 278.781,28.667 C278.421667,28.3076667 277.999333,28.058 277.514,27.918 C277.028667,27.778 276.594667,27.666 276.212,27.582 C275.764,27.4793333 275.360333,27.3463333 275.001,27.183 C274.641667,27.0196667 274.462,26.7093333 274.462,26.252 C274.462,25.86 274.606667,25.5753333 274.896,25.398 C275.185333,25.2206667 275.549333,25.132 275.988,25.132 C276.230667,25.132 276.482667,25.16 276.744,25.216 C277.005333,25.272 277.266667,25.3746667 277.528,25.524 L277.528,25.524 L277.654,26.7 L278.9,26.588 L278.816,24.67 C278.517333,24.3993333 278.104333,24.18 277.577,24.012 C277.049667,23.844 276.506,23.76 275.946,23.76 C275.143333,23.76 274.417667,23.9676667 273.769,24.383 C273.120333,24.7983333 272.796,25.482 272.796,26.434 C272.796,27.0686667 272.940667,27.5493333 273.23,27.876 C273.519333,28.2026667 273.883333,28.436 274.322,28.576 C274.760667,28.716 275.194667,28.828 275.624,28.912 C276.156,29.0146667 276.627333,29.1616667 277.038,29.353 C277.448667,29.5443333 277.654,29.9246667 277.654,30.494 C277.654,31.0166667 277.474333,31.3643333 277.115,31.537 C276.755667,31.7096667 276.305333,31.796 275.764,31.796 C275.54,31.796 275.299667,31.775 275.043,31.733 C274.786333,31.691 274.504,31.5906667 274.196,31.432 L274.196,31.432 L274.224,30.312 L272.978,30.186 L272.726,32.272 C273.062,32.552 273.517,32.7666667 274.091,32.916 C274.665,33.0653333 275.26,33.14 275.876,33.14 Z" id="HONGKONGCENTERFORCONSTRUCTIONROBOTICS" fill="#3E3A39" fill-rule="nonzero"></path>
                <path d="M75.214,52.33 L75.214,51.336 L80.702,51.336 L80.702,52.162 L81.934,52.162 C81.8873333,51.686 81.864,51.1026667 81.864,50.412 L81.864,50.412 L81.8648571,47.2377143 C81.8682857,46.8685714 81.882,46.592 81.906,46.408 C82.466,46.6973333 83.0773333,46.9493333 83.74,47.164 C83.8893333,46.6693333 84.1366667,46.212 84.482,45.792 C82.3446667,45.5773333 80.772,44.8026667 79.764,43.468 C81.78,43.468 83.1986667,43.5006667 84.02,43.566 L84.02,43.566 L84.02,42.46 C83.138,42.5188 81.5756,42.55114 79.3328,42.55702 L78.56,42.558 L78.56,41.27 C79.148,41.2233333 79.764,41.1673333 80.408,41.102 C81.052,41.0366667 81.4836667,41.004 81.703,41.004 C81.9223333,41.004 82.2186667,41.046 82.592,41.13 C82.704,41.158 82.76,41.1416667 82.76,41.081 C82.76,41.0203333 82.7273333,40.9573333 82.662,40.892 C82.3633333,40.5746667 82.074,40.1686667 81.794,39.674 C81.206,39.9166667 80.219,40.129 78.833,40.311 C77.447,40.493 76.25,40.584 75.242,40.584 C74.234,40.584 73.4966667,40.556 73.03,40.5 C73.2913333,40.9013333 73.4406667,41.2606667 73.478,41.578 C74.6446667,41.5593333 75.9653333,41.4893333 77.44,41.368 L77.44,41.368 L77.44,42.558 C74.864,42.558 73.0906667,42.5253333 72.12,42.46 L72.12,42.46 L72.12,43.566 C73.352,43.482 74.8313333,43.4446667 76.558,43.454 C75.5033333,44.3406667 74.633,44.98 73.947,45.372 C73.261,45.764 72.4653333,46.0906667 71.56,46.352 C71.9333333,46.5853333 72.2553333,46.912 72.526,47.332 C73.0953333,47.08 73.6086667,46.8233333 74.066,46.562 C74.0846667,46.87 74.094,47.1593333 74.094,47.43 L74.094,47.43 L74.094,50.58 C74.094,51.1866667 74.0753333,51.77 74.038,52.33 L74.038,52.33 L75.214,52.33 Z M81.808,46.38 L78.56,46.38 L78.56,43.468 L78.784,43.468 C79.428,44.672 80.436,45.6426667 81.808,46.38 L81.808,46.38 Z M77.44,46.38 L74.374,46.38 C75.3913333,45.7453333 76.4133333,44.8213333 77.44,43.608 L77.44,43.608 L77.44,46.38 Z M80.702,48.368 L75.214,48.368 L75.214,47.276 L80.702,47.276 L80.702,48.368 Z M80.702,50.398 L75.214,50.398 L75.214,49.306 L80.702,49.306 L80.702,50.398 Z M93.036,51.938 C94.4546667,51.938 95.395,51.9076667 95.857,51.847 C96.319,51.7863333 96.6596667,51.63 96.879,51.378 C97.0983333,51.126 97.3013333,50.6593333 97.488,49.978 C96.8533333,49.81 96.4566667,49.6046667 96.298,49.362 C96.2886667,49.6606667 96.256,49.9056667 96.2,50.097 C96.144,50.2883333 96.0646667,50.44 95.962,50.552 C95.8593333,50.664 95.738,50.7456667 95.598,50.797 C95.458,50.8483333 95.1616667,50.8856667 94.709,50.909 C94.2563333,50.9323333 93.687,50.944 93.001,50.944 L92.80318,50.9433 C92.23366,50.9391 91.8796,50.916 91.741,50.874 C91.587,50.8273333 91.51,50.636 91.51,50.3 L91.51,50.3 L91.51,49.418 L94.17,49.418 C94.5246667,49.418 95.0473333,49.4366667 95.738,49.474 C95.7006667,48.97 95.682,48.5313333 95.682,48.158 C95.682,47.7846667 95.6913333,47.36 95.71,46.884 C96.298,47.3973333 96.956,47.7893333 97.684,48.06 C97.7493333,47.5933333 97.9966667,47.1686667 98.426,46.786 C97.9126667,46.786 97.3456667,46.6413333 96.725,46.352 C96.1043333,46.0626667 95.626,45.5726667 95.29,44.882 C96.3913333,44.882 97.292,44.9146667 97.992,44.98 L97.992,44.98 L97.992,43.818 C97.3013333,43.902 96.4146667,43.944 95.332,43.944 L95.332,43.944 L95.332,42.25 C96.3773333,42.2686667 97.1006667,42.306 97.502,42.362 L97.502,42.362 L97.502,41.186 C97.0166667,41.2513333 96.2933333,41.2933333 95.332,41.312 L95.332,41.312 L95.332,40.22 C95.332,40.052 95.3856667,39.9376667 95.493,39.877 C95.6003333,39.8163333 95.654,39.7603333 95.654,39.709 C95.654,39.6576667 95.5886667,39.632 95.458,39.632 C95.0006667,39.632 94.5713333,39.604 94.17,39.548 C94.2353333,39.8373333 94.268,40.4253333 94.268,41.312 L94.268,41.312 L92.35,41.312 L92.35,40.304 C92.35,40.136 92.4013333,40.024 92.504,39.968 C92.6066667,39.912 92.658,39.8583333 92.658,39.807 C92.658,39.7556667 92.5973333,39.73 92.476,39.73 C92.0186667,39.73 91.5893333,39.702 91.188,39.646 C91.244,39.87 91.2766667,40.4253333 91.286,41.312 C90.4366667,41.2933333 89.788,41.2513333 89.34,41.186 L89.34,41.186 L89.34,42.362 C89.7133333,42.306 90.362,42.2686667 91.286,42.25 L91.286,42.25 L91.286,43.944 C90.39,43.944 89.5453333,43.902 88.752,43.818 L88.752,43.818 L88.752,44.98 C89.3773333,44.9146667 90.2593333,44.882 91.398,44.882 C91.1926667,45.1993333 90.768,45.6333333 90.124,46.184 C89.48,46.7346667 88.8873333,47.136 88.346,47.388 C88.6726667,47.6026667 88.9386667,47.8686667 89.144,48.186 C89.5826667,47.878 90.026,47.5326667 90.474,47.15 L90.474,47.15 L90.474,50.916 C90.474,51.2146667 90.5276667,51.4316667 90.635,51.567 C90.7423333,51.7023333 90.9663333,51.798 91.307,51.854 C91.6476667,51.91 92.224,51.938 93.036,51.938 Z M88.108,42.362 L88.836,41.34 C88.2106667,40.8266667 87.59,40.374 86.974,39.982 L86.974,39.982 L86.218,40.892 C86.974,41.34 87.604,41.83 88.108,42.362 L88.108,42.362 Z M94.268,43.944 L92.35,43.944 L92.35,42.25 L94.268,42.25 L94.268,43.944 Z M87.688,45.708 L88.388,44.686 C87.9773333,44.3966667 87.2633333,43.9673333 86.246,43.398 L86.246,43.398 L85.546,44.364 C86.246,44.6813333 86.96,45.1293333 87.688,45.708 L87.688,45.708 Z M93.064,46.576 C92.3546667,46.576 91.7106667,46.562 91.132,46.534 C91.7013333,45.946 92.1633333,45.3953333 92.518,44.882 L92.518,44.882 L94.24,44.882 C94.4453333,45.414 94.8093333,45.96 95.332,46.52 C94.5293333,46.5573333 93.7733333,46.576 93.064,46.576 Z M87.17,52.036 C87.4593333,50.412 87.8326667,48.8673333 88.29,47.402 C87.8233333,47.2526667 87.4826667,47.024 87.268,46.716 C87.1933333,47.3413333 87.002,48.102 86.694,48.998 C86.386,49.894 86.0546667,50.6173333 85.7,51.168 C86.1386667,51.336 86.6286667,51.6253333 87.17,52.036 Z M94.702,48.536 L91.51,48.536 L91.51,47.388 L94.702,47.388 L94.702,48.536 Z M101.114,47.318 C102.458,46.5713333 103.386667,45.8106667 103.9,45.036 C104.730667,45.484 105.468,45.9833333 106.112,46.534 L106.112,46.534 L106.812,45.708 C106.121333,45.2506667 105.276667,44.784 104.278,44.308 C104.306,44.2426667 104.338667,44.1353333 104.376,43.986 C105.253333,44.0046667 106.135333,44.0513333 107.022,44.126 L107.022,44.126 L107.022,43.006 C106.434,43.062 105.608,43.0946667 104.544,43.104 C104.581333,42.8053333 104.614,42.362 104.642,41.774 C105.388667,41.746 106.056,41.76 106.644,41.816 L106.644,41.816 L106.644,40.794 C106.112,40.8593333 105.430667,40.892 104.6,40.892 L104.6,40.892 L102.696,40.892 C103.004,40.3413333 103.235,40.0496667 103.389,40.017 C103.543,39.9843333 103.62,39.947 103.62,39.905 C103.62,39.863 103.568667,39.8326667 103.466,39.814 C103.008667,39.7206667 102.588667,39.5573333 102.206,39.324 C101.907333,40.416 101.319333,41.3726667 100.442,42.194 C100.806,42.306 101.118667,42.4973333 101.38,42.768 C101.688,42.3853333 101.935333,42.054 102.122,41.774 L102.122,41.774 L103.522,41.774 C103.512667,42.2686667 103.484667,42.712 103.438,43.104 C102.084667,43.104 101.006667,43.076 100.204,43.02 L100.204,43.02 L100.204,44.126 C101.342667,44.042 102.369333,43.9953333 103.284,43.986 C102.966667,44.9286667 101.944667,45.75 100.218,46.45 C100.563333,46.674 100.862,46.9633333 101.114,47.318 Z M107.414,45.904 C107.712667,45.8573333 108.422,45.834 109.542,45.834 C110.662,45.834 111.422667,45.8526667 111.824,45.89 C111.786667,45.1526667 111.768,44.3196667 111.768,43.391 C111.768,42.4623333 111.786667,41.606 111.824,40.822 C111.450667,40.878 110.692333,40.906 109.549,40.906 L109.310607,40.9055714 C108.306202,40.9018571 107.674,40.874 107.414,40.822 C107.47,41.3913333 107.498,42.2383333 107.498,43.363 C107.498,44.4876667 107.47,45.3346667 107.414,45.904 Z M110.648,44.84 L108.632,44.84 L108.632,41.928 L110.648,41.928 L110.648,44.84 Z M103.55,52.33 L103.55,51.476 L109.024,51.476 L109.024,52.33 L110.326,52.33 C110.242,51.882 110.2,51.3313333 110.2,50.678 L110.2,50.678 L110.200875,47.5877188 C110.204958,47.1559063 110.223333,46.842 110.256,46.646 C109.74163,46.6874815 108.659424,46.7105267 107.009383,46.7151358 L105.681149,46.7150311 C104.045716,46.7101869 102.948,46.6871765 102.388,46.646 C102.416,46.8233333 102.43,47.2013333 102.43,47.78 L102.43,47.78 L102.43,50.678 C102.43,51.2753333 102.388,51.826 102.304,52.33 L102.304,52.33 L103.55,52.33 Z M109.024,48.62 L103.55,48.62 L103.55,47.626 L109.024,47.626 L109.024,48.62 Z M109.024,50.58 L103.55,50.58 L103.55,49.488 L109.024,49.488 L109.024,50.58 Z M119.524,44.336 L120.532,43.748 C120.084,43.0013333 119.519333,42.18 118.838,41.284 L118.838,41.284 L117.984,41.732 C118.254667,42.0773333 118.534667,42.5066667 118.824,43.02 L118.824,43.02 L115.786,43.076 L117.158,41.466 C117.466,41.0833333 117.711,40.8313333 117.893,40.71 C118.075,40.5886667 118.166,40.5 118.166,40.444 C118.166,40.388 118.047,40.339 117.809,40.297 C117.571,40.255 117.214,40.1033333 116.738,39.842 C116.588667,40.206 116.390333,40.6026667 116.143,41.032 C115.895667,41.4613333 115.650667,41.8346667 115.408,42.152 C115.165333,42.4693333 114.976333,42.677 114.841,42.775 C114.705667,42.873 114.521333,42.9733333 114.288,43.076 C114.428,43.4773333 114.535333,43.874 114.61,44.266 C114.880667,44.1446667 115.338,44.0513333 115.982,43.986 L115.982,43.986 L119.216,43.706 C119.374667,44.0046667 119.477333,44.2146667 119.524,44.336 L119.524,44.336 Z M123.700494,45.2870494 C124.305202,45.2819794 124.723704,45.2566296 124.956,45.211 C125.217333,45.1596667 125.422667,45.0336667 125.572,44.833 C125.721333,44.6323333 125.88,44.28 126.048,43.776 C125.562667,43.6546667 125.194,43.412 124.942,43.048 C124.876667,43.468 124.802,43.769 124.718,43.951 C124.634,44.133 124.512667,44.2543333 124.354,44.315 C124.195333,44.3756667 123.922333,44.406 123.535,44.406 C123.147667,44.406 122.849,44.385 122.639,44.343 C122.429,44.301 122.293667,44.2426667 122.233,44.168 C122.172333,44.0933333 122.142,43.9906667 122.142,43.86 L122.142,43.86 L122.142,43.104 C124.008667,42.3573333 125.096,41.984 125.404,41.984 C125.525333,41.984 125.607,41.977 125.649,41.963 C125.691,41.949 125.712,41.9186667 125.712,41.872 C125.712,41.8253333 125.674667,41.7786667 125.6,41.732 C125.310667,41.536 125.021333,41.2233333 124.732,40.794 C124.06,41.3446667 123.196667,41.8346667 122.142,42.264 L122.142,42.264 L122.142,40.794 C122.142,40.6166667 122.209667,40.4766667 122.345,40.374 C122.480333,40.2713333 122.548,40.192 122.548,40.136 C122.548,40.08 122.473333,40.052 122.324,40.052 C121.782667,40.052 121.353333,40.024 121.036,39.968 C121.101333,40.3413333 121.134,40.8546667 121.134,41.508 L121.134,41.508 L121.134,43.958 C121.134,44.406 121.180667,44.714 121.274,44.882 C121.367333,45.05 121.572667,45.1596667 121.89,45.211 C122.207333,45.2623333 122.732333,45.288 123.465,45.288 L123.700494,45.2870494 Z M117.816,52.134 C118.366667,52.0873333 118.772667,52.0243333 119.034,51.945 C119.295333,51.8656667 119.472667,51.7536667 119.566,51.609 C119.659333,51.4643333 119.706,51.2473333 119.706,50.958 L119.706,50.958 L119.706,46.1 C119.706,45.5773333 119.738667,45.148 119.804,44.812 C119.262667,44.8866667 118.436667,44.924 117.326,44.924 C116.215333,44.924 115.366,44.8866667 114.778,44.812 C114.843333,45.148 114.876,45.5773333 114.876,46.1 L114.876,46.1 L114.876,49.838 C114.876,50.5566667 114.838667,51.2893333 114.764,52.036 L114.764,52.036 L115.954,52.036 L115.954,49.6 L118.628,49.6 L118.628,50.566 C118.628,50.846 118.450667,50.986 118.096,50.986 C117.918667,50.986 117.676,50.958 117.368,50.902 C117.638667,51.294 117.788,51.7046667 117.816,52.134 Z M118.628,46.898 L115.954,46.898 L115.954,45.806 L118.628,45.806 L118.628,46.898 Z M123.374,51.882 C124.13,51.882 124.650333,51.847 124.935,51.777 C125.219667,51.707 125.434333,51.56 125.579,51.336 C125.723667,51.112 125.88,50.7106667 126.048,50.132 C125.572,50.0293333 125.184667,49.7633333 124.886,49.334 C124.848667,49.8193333 124.746,50.202 124.578,50.482 C124.41,50.762 124.069333,50.902 123.556,50.902 C123.042667,50.902 122.685667,50.888 122.485,50.86 C122.284333,50.832 122.156,50.7876667 122.1,50.727 C122.044,50.6663333 122.016,50.5706667 122.016,50.44 L122.016,50.44 L122.016,49.026 C123.966667,48.2326667 125.082,47.836 125.362,47.836 C125.446,47.836 125.502,47.8313333 125.53,47.822 C125.558,47.8126667 125.572,47.7846667 125.572,47.738 C125.572,47.6913333 125.544,47.6446667 125.488,47.598 C125.189333,47.3273333 124.923333,47.0146667 124.69,46.66 C124.027333,47.1733333 123.136,47.6633333 122.016,48.13 L122.016,48.13 L122.016,46.646 C122.016,46.4686667 122.083667,46.3286667 122.219,46.226 C122.354333,46.1233333 122.422,46.044 122.422,45.988 C122.422,45.932 122.347333,45.904 122.198,45.904 C121.647333,45.904 121.213333,45.876 120.896,45.82 C120.970667,46.2306667 121.008,46.744 121.008,47.36 L121.008,47.36 L121.008,50.538 C121.008,50.986 121.054667,51.2963333 121.148,51.469 C121.241333,51.6416667 121.446667,51.7536667 121.764,51.805 C122.081333,51.8563333 122.618,51.882 123.374,51.882 Z M118.628,48.788 L115.954,48.788 L115.954,47.682 L118.628,47.682 L118.628,48.788 Z M135.932,50.398 C135.885333,49.8846667 135.862,49.4926667 135.862,49.222 C137.402,49.222 138.536,49.2546667 139.264,49.32 L139.264,49.32 L139.264,48.326 C138.545333,48.4006667 137.406667,48.438 135.848,48.438 L135.848,48.438 L135.848,47.234 C137.126667,47.234 138.102,47.2666667 138.774,47.332 L138.774,47.332 L138.774,46.338 C138.102,46.4126667 137.126667,46.45 135.848,46.45 L135.848,46.45 L135.848,45.26 C137.425333,45.26 138.41,45.274 138.802,45.302 C138.764667,44.9846667 138.746,44.6066667 138.746,44.168 L138.746,44.168 L138.746,43.384 C139.455333,43.4026667 139.917333,43.426 140.132,43.454 L140.132,43.454 L140.132,42.488 C139.824,42.544 139.362,42.572 138.746,42.572 L138.746,42.572 L138.746,41.48 C138.746,41.116 138.76,40.85 138.788,40.682 C138.34,40.766 137.36,40.808 135.848,40.808 C135.848,40.2573333 135.908667,39.947 136.03,39.877 C136.151333,39.807 136.212,39.744 136.212,39.688 C136.212,39.632 136.114,39.604 135.918,39.604 C135.479333,39.604 135.096667,39.5806667 134.77,39.534 C134.807333,39.842 134.830667,40.2666667 134.84,40.808 C133.748,40.7986667 132.996667,40.7753333 132.586,40.738 L132.586,40.738 L132.586,41.676 C133.043333,41.6293333 133.794667,41.606 134.84,41.606 L134.84,41.606 L134.84,42.572 C133.458667,42.572 132.46,42.544 131.844,42.488 L131.844,42.488 L131.844,43.482 C132.590667,43.4166667 133.589333,43.384 134.84,43.384 L134.84,43.384 L134.84,44.49 C133.608,44.4806667 132.856667,44.4573333 132.586,44.42 L132.586,44.42 L132.586,45.33 C132.987333,45.2833333 133.738667,45.26 134.84,45.26 L134.84,45.26 L134.84,46.45 C133.72,46.45 132.856667,46.4126667 132.25,46.338 L132.25,46.338 L132.25,47.332 C132.875333,47.2666667 133.738667,47.234 134.84,47.234 L134.84,47.234 L134.84,48.438 C133.496,48.438 132.511333,48.4006667 131.886,48.326 L131.886,48.326 L131.886,49.32 C132.53,49.2546667 133.514667,49.222 134.84,49.222 C134.821333,49.6513333 134.798,50.0433333 134.77,50.398 L134.77,50.398 L135.932,50.398 Z M128.694,51.98 C129.291333,51.4293333 129.781333,50.8226667 130.164,50.16 C130.854667,50.832 131.692333,51.2986667 132.677,51.56 C133.661667,51.8213333 135.124667,51.952 137.066,51.952 C137.803333,51.952 138.657333,51.9333333 139.628,51.896 C139.656,51.4573333 139.791333,50.986 140.034,50.482 C137.896667,50.706 136.268,50.818 135.148,50.818 C134.028,50.818 133.141333,50.699 132.488,50.461 C131.834667,50.223 131.223333,49.8006667 130.654,49.194 C131.167333,48.0366667 131.512667,46.52 131.69,44.644 C131.512667,44.7373333 130.910667,44.8026667 129.884,44.84 C130.574667,43.496 131.153333,42.1566667 131.62,40.822 C131.06,40.8686667 130.444,40.892 129.772,40.892 C129.1,40.892 128.61,40.8826667 128.302,40.864 L128.302,40.864 L128.302,41.9 C128.647333,41.8346667 128.969333,41.802 129.268,41.802 L129.268,41.802 L130.192,41.802 L129.072,44.266 C128.922667,44.5926667 128.698667,44.8493333 128.4,45.036 C128.549333,45.2973333 128.647333,45.5913333 128.694,45.918 C129.058,45.7966667 129.664667,45.708 130.514,45.652 C130.411333,46.716 130.22,47.612 129.94,48.34 C129.501333,47.7613333 129.188667,47.164 129.002,46.548 L129.002,46.548 L128.078,46.996 C128.47,47.7893333 128.936667,48.564 129.478,49.32 C129.058,50.0386667 128.507333,50.6733333 127.826,51.224 C128.227333,51.4293333 128.516667,51.6813333 128.694,51.98 Z M137.766,42.572 L135.848,42.572 L135.848,41.606 L137.766,41.606 L137.766,42.572 Z M137.766,44.49 L135.848,44.49 L135.848,43.384 L137.766,43.384 L137.766,44.49 Z M145.228,44.938 C146.198667,44.8446667 147.762,44.798 149.918,44.798 C152.074,44.798 153.436667,44.8306667 154.006,44.896 L154.006,44.896 L154.006,43.748 C153.100667,43.832 151.817333,43.8786667 150.156,43.888 L150.156,43.888 L150.156,42.236 C151.658667,42.236 152.62,42.2686667 153.04,42.334 L153.04,42.334 L153.04,41.256 C152.638667,41.3213333 151.677333,41.354 150.156,41.354 L150.156,41.354 L150.156,40.332 C150.156,40.2386667 150.172333,40.143 150.205,40.045 C150.237667,39.947 150.289,39.8723333 150.359,39.821 C150.429,39.7696667 150.464,39.723 150.464,39.681 C150.464,39.639 150.403333,39.618 150.282,39.618 C149.787333,39.618 149.334667,39.59 148.924,39.534 C148.989333,40.0006667 149.026667,40.6073333 149.036,41.354 L149.036,41.354 L147.44,41.354 C147.645333,40.85 147.787667,40.5723333 147.867,40.521 C147.946333,40.4696667 147.986,40.4276667 147.986,40.395 C147.986,40.3623333 147.939333,40.3413333 147.846,40.332 C147.388667,40.2853333 146.959333,40.1873333 146.558,40.038 C146.464667,41.2513333 146.105333,42.2826667 145.48,43.132 C145.816,43.132 146.203333,43.2206667 146.642,43.398 C146.847333,43.006 147.010667,42.6186667 147.132,42.236 L147.132,42.236 L149.036,42.236 L149.036,43.888 C147.421333,43.8786667 146.152,43.832 145.228,43.748 L145.228,43.748 L145.228,44.938 Z M143.674,43.244 L144.92,42.516 C144.388,41.7226667 143.893333,41.0086667 143.436,40.374 L143.436,40.374 L142.316,41.046 C142.894667,41.662 143.347333,42.3946667 143.674,43.244 L143.674,43.244 Z M152.62868,52.11328 C153.01116,52.11216 153.414267,52.1097333 153.838,52.106 C153.838,51.63 154.02,51.1633333 154.384,50.706 C152.228,50.8553333 150.464,50.93 149.092,50.93 C147.72,50.93 146.74,50.7853333 146.152,50.496 C145.396,50.1226667 144.789333,49.852 144.332,49.684 L144.332,49.684 L144.332,46.1 C144.332,45.3813333 144.374,44.8306667 144.458,44.448 C144.094,44.504 143.66,44.532 143.156,44.532 C142.652,44.532 142.199333,44.504 141.798,44.448 L141.798,44.448 L141.798,45.624 C141.956667,45.5866667 142.418667,45.568 143.184,45.568 L143.184,45.568 L143.184,49.754 C142.773333,49.95 142.26,50.4166667 141.644,51.154 C141.989333,51.35 142.288,51.6206667 142.54,51.966 C142.866667,51.4713333 143.132667,51.119 143.338,50.909 C143.543333,50.699 143.727667,50.594 143.891,50.594 C144.054333,50.594 144.22,50.6336667 144.388,50.713 C144.556,50.7923333 144.826667,50.9626667 145.2,51.224 C145.573333,51.4853333 146.033,51.679 146.579,51.805 C147.125,51.931 147.941667,52.0173333 149.029,52.064 C149.753889,52.0951111 150.707963,52.1117037 151.891222,52.1137778 L152.62868,52.11328 Z M147.692,50.188 L147.692,49.362 L151.584,49.362 L151.584,50.104 L152.802,50.104 C152.727333,49.4413333 152.69,48.8486667 152.69,48.326 L152.69,48.326 L152.69,47.262 C152.69,46.7486667 152.718,46.2446667 152.774,45.75 C152.606,45.8088 151.75949,45.84114 150.23447,45.84702 L149.413651,45.8477285 C147.729463,45.8444709 146.763579,45.8118947 146.516,45.75 C146.572,46.198 146.6,46.702 146.6,47.262 L146.6,47.262 L146.6,48.326 C146.6,48.8953333 146.562667,49.516 146.488,50.188 L146.488,50.188 L147.692,50.188 Z M151.584,48.452 L147.692,48.452 L147.692,46.8 L151.584,46.8 L151.584,48.452 Z M166.62,52.288 C166.536,51.1773333 166.494,50.118 166.494,49.11 L166.494,49.11 L166.494,46.198 C167.278,46.2073333 167.917333,46.2493333 168.412,46.324 L168.412,46.324 L168.412,45.092 C167.917333,45.1666667 167.278,45.2086667 166.494,45.218 L166.494,45.218 L166.494,41.48 C167.156667,41.4893333 167.604667,41.5266667 167.838,41.592 L167.838,41.592 L167.838,40.416 C167.418,40.4813333 166.337667,40.514 164.597,40.514 L164.277488,40.5136172 C162.714246,40.5097891 161.66575,40.47725 161.132,40.416 L161.132,40.416 L161.132,41.592 C161.430667,41.5266667 161.888,41.4893333 162.504,41.48 C162.513333,42.712 162.504,43.958 162.476,45.218 C161.822667,45.2086667 161.267333,45.1666667 160.81,45.092 L160.81,45.092 L160.81,46.324 C161.267333,46.2493333 161.808667,46.2073333 162.434,46.198 C162.378,47.5793333 162.151667,48.6503333 161.755,49.411 C161.358333,50.1716667 160.726,50.8273333 159.858,51.378 C160.259333,51.5833333 160.623333,51.868 160.95,52.232 C161.864667,51.4106667 162.513333,50.5543333 162.896,49.663 C163.278667,48.7716667 163.488667,47.6166667 163.526,46.198 L163.526,46.198 L165.402,46.198 L165.402,49.11 C165.402,49.8846667 165.350667,50.944 165.248,52.288 L165.248,52.288 L166.62,52.288 Z M157.884,51.434 L157.884,49.362 L159.354,49.362 L159.354,50.384 L160.432,50.384 C160.404,49.712 160.39,49.194 160.39,48.83 L160.390571,45.635 C160.395524,44.6816667 160.432667,44.1226667 160.502,43.958 C160.43563,43.9911852 159.768239,44.0096214 158.499827,44.0133086 L157.996,44.014 C158.36,43.2206667 158.616667,42.3713333 158.766,41.466 C159.568667,41.4753333 160.138,41.5173333 160.474,41.592 L160.474,41.592 L160.474,40.43 C159.998,40.4953333 159.263,40.528 158.269,40.528 L157.97857,40.52702 C157.13059,40.52114 156.4924,40.4888 156.064,40.43 L156.064,40.43 L156.064,41.592 C156.418667,41.5173333 156.955333,41.4753333 157.674,41.466 C157.366,43.5753333 156.628667,45.1106667 155.462,46.072 C155.714,46.4266667 155.900667,46.8186667 156.022,47.248 C156.33,46.8186667 156.614667,46.394 156.876,45.974 L156.876,45.974 L156.876,49.32 C156.876,50.0386667 156.829333,50.7433333 156.736,51.434 L156.736,51.434 L157.884,51.434 Z M165.402,45.218 L163.54,45.218 L163.596,41.48 L165.402,41.48 L165.402,45.218 Z M159.354,48.396 L157.884,48.396 L157.884,44.98 L159.354,44.98 L159.354,48.396 Z M175.748,46.87 C176.196,46.506 176.527333,46.1046667 176.742,45.666 C176.956667,45.2273333 177.064,44.6906667 177.064,44.056 L177.064,44.056 L178.478,44.056 L178.478,45.568 C178.478,45.8293333 178.515333,46.023 178.59,46.149 C178.664667,46.275 178.818667,46.3636667 179.052,46.415 C179.285333,46.4663333 179.593333,46.492 179.976,46.492 C180.358667,46.492 180.741333,46.4873333 181.124,46.478 C181.142667,46.0206667 181.245333,45.638 181.432,45.33 C180.750667,45.4513333 180.305,45.512 180.095,45.512 C179.885,45.512 179.733333,45.484 179.64,45.428 C179.546667,45.372 179.5,45.2273333 179.5,44.994 L179.5,44.994 L179.5,43.888 C180.153333,44.252 180.932667,44.6113333 181.838,44.966 C181.978,44.4806667 182.211333,44.084 182.538,43.776 C181.595333,43.7106667 180.699333,43.4633333 179.85,43.034 C180.372667,42.5953333 180.722667,42.3176667 180.9,42.201 C181.077333,42.0843333 181.231333,42.0213333 181.362,42.012 C181.492667,42.0026667 181.558,41.9746667 181.558,41.928 C181.558,41.8813333 181.520667,41.83 181.446,41.774 C181.222,41.6153333 180.928,41.368 180.564,41.032 C180.284,41.4146667 179.775333,41.9093333 179.038,42.516 C178.758,42.292 178.515333,42.068 178.31,41.844 C178.963333,41.312 179.378667,40.9876667 179.556,40.871 C179.733333,40.7543333 179.887333,40.6866667 180.018,40.668 C180.148667,40.6493333 180.214,40.6166667 180.214,40.57 C180.214,40.5233333 180.172,40.4766667 180.088,40.43 C179.826667,40.29 179.509333,40.0613333 179.136,39.744 C178.837333,40.1453333 178.366,40.6073333 177.722,41.13 C177.47,40.7846667 177.222667,40.3413333 176.98,39.8 L176.98,39.8 L175.986,40.234 C176.807333,41.5966667 177.656667,42.6046667 178.534,43.258 L178.534,43.258 L177.34932,43.2573 C176.67564,43.2531 176.2212,43.23 175.986,43.188 C176.023333,43.552 176.042,43.8646667 176.042,44.126 C176.042,44.714 175.948667,45.1596667 175.762,45.463 C175.575333,45.7663333 175.262667,46.0393333 174.824,46.282 C175.225333,46.422 175.533333,46.618 175.748,46.87 Z M171.786,51.98 C172.57,51.9333333 173.134667,51.833 173.48,51.679 C173.825333,51.525 174.063333,51.2683333 174.194,50.909 C174.324667,50.5496667 174.413333,49.999 174.46,49.257 C174.506667,48.515 174.567333,47.9526667 174.642,47.57 C174.455333,47.6166667 173.979333,47.64 173.214,47.64 L173.214,47.64 L171.632,47.64 L171.8,46.338 L173.494,46.338 C173.886,46.338 174.287333,46.3753333 174.698,46.45 C174.707333,45.4886667 174.791333,44.406 174.95,43.202 C174.716667,43.2393333 174.506667,43.258 174.32,43.258 L174.32,43.258 L173.55,43.258 C174.436667,42.4086667 175.071333,41.4286667 175.454,40.318 C174.604667,40.3646667 173.711,40.388 172.773,40.388 C171.835,40.388 170.974,40.3646667 170.19,40.318 L170.19,40.318 L170.19,41.298 C170.722,41.2513333 171.324,41.228 171.996,41.228 L171.996,41.228 L173.914,41.228 C173.624667,41.8066667 173.256,42.306 172.808,42.726 C172.518667,42.362 172.178,41.9886667 171.786,41.606 L171.786,41.606 L170.932,42.334 C171.361333,42.5766667 171.739333,42.9126667 172.066,43.342 C171.291333,43.874 170.386,44.2846667 169.35,44.574 C169.723333,44.8353333 170.003333,45.148 170.19,45.512 C171.095333,45.064 171.893333,44.588 172.584,44.084 L172.584,44.084 L173.844,44.084 L173.732,45.498 L172.178,45.498 C171.683333,45.498 171.258667,45.456 170.904,45.372 C170.848,46.324 170.694,47.388 170.442,48.564 C170.703333,48.536 171.118667,48.522 171.688,48.522 L171.688,48.522 L173.466,48.522 C173.41,49.53 173.333,50.1576667 173.235,50.405 C173.137,50.6523333 172.845333,50.776 172.36,50.776 C172.089333,50.776 171.767333,50.7386667 171.394,50.664 C171.552667,50.8973333 171.657667,51.1073333 171.709,51.294 C171.760333,51.4806667 171.786,51.7093333 171.786,51.98 Z M175.286,52.148 C176.984667,51.42 178.090667,50.86 178.604,50.468 C179.388,50.9346667 180.148667,51.4806667 180.886,52.106 L180.886,52.106 L181.698,51.07 C180.942,50.622 180.139333,50.188 179.29,49.768 C179.915333,48.9653333 180.414667,48.0086667 180.788,46.898 C179.733333,46.9353333 178.797667,46.954 177.981,46.954 C177.164333,46.954 176.228667,46.9353333 175.174,46.898 L175.174,46.898 L175.174,47.836 C175.631333,47.7893333 176.177333,47.766 176.812,47.766 L176.812,47.766 L179.234,47.766 C179.056667,48.3353333 178.781333,48.8533333 178.408,49.32 C177.633333,48.928 176.844667,48.55 176.042,48.186 L176.042,48.186 L175.482,49.012 C176.219333,49.2733333 176.956667,49.5906667 177.694,49.964 C176.872667,50.5053333 175.813333,50.8693333 174.516,51.056 C174.898667,51.3826667 175.155333,51.7466667 175.286,52.148 Z M190.756,52.246 C190.662667,51.35 190.616,50.51 190.616,49.726 L190.616,49.726 L190.616,47.682 L193.962,47.682 L193.962,48.536 L195.292,48.536 C195.245333,47.584 195.222,46.9166667 195.222,46.534 L195.222,43.846 C195.222,43.3606667 195.245333,42.7866667 195.292,42.124 C194.554667,42.2173333 192.996,42.2686667 190.616,42.278 L190.616,42.278 L190.616,40.64 C190.616,40.22 190.669667,39.9656667 190.777,39.877 C190.884333,39.7883333 190.938,39.723 190.938,39.681 C190.938,39.639 190.872667,39.618 190.742,39.618 C190.266,39.618 189.771333,39.59 189.258,39.534 C189.351333,39.7766667 189.398,40.472 189.398,41.62 L189.398,41.62 L189.398,42.278 C186.962,42.2593333 185.45,42.208 184.862,42.124 C184.927333,42.5533333 184.96,43.034 184.96,43.566 L184.96,43.566 L184.96,46.59 C184.96,47.262 184.927333,47.9573333 184.862,48.676 L184.862,48.676 L186.15,48.676 L186.15,47.682 L189.398,47.682 L189.398,49.726 C189.398,50.4446667 189.351333,51.2846667 189.258,52.246 L189.258,52.246 L190.756,52.246 Z M193.962,46.632 L190.616,46.632 L190.616,43.328 L193.962,43.328 L193.962,46.632 Z M189.398,46.632 L186.15,46.632 L186.15,43.328 L189.398,43.328 L189.398,46.632 Z M204.784,43.538 L206.016,42.572 C205.064,41.676 204.191333,40.7566667 203.398,39.814 L203.398,39.814 L202.292,40.682 C203.216,41.4846667 204.046667,42.4366667 204.784,43.538 L204.784,43.538 Z M204.49,51.686 C204.947333,51.686 205.369667,51.6743333 205.757,51.651 C206.144333,51.6276667 206.508333,51.581 206.849,51.511 C207.189667,51.441 207.446333,51.2683333 207.619,50.993 C207.791667,50.7176667 207.999333,50.1973333 208.242,49.432 C207.635333,49.2826667 207.187333,48.9513333 206.898,48.438 C206.804667,49.138 206.706667,49.6163333 206.604,49.873 C206.501333,50.1296667 206.338,50.2906667 206.114,50.356 C205.89,50.4213333 205.320667,50.454 204.406,50.454 L204.209028,50.4532222 C203.894676,50.4506296 203.65,50.4415556 203.475,50.426 C203.265,50.4073333 203.125,50.335 203.055,50.209 C202.985,50.083 202.95,49.908 202.95,49.684 L202.95,49.684 L202.95,44.588 C202.95,44.4013333 203.006,44.2566667 203.118,44.154 C203.211333,44.0793333 203.258,44.0186667 203.258,43.972 C203.258,43.9253333 203.188,43.902 203.048,43.902 L203.048,43.902 L202.404,43.902 C202.18,43.902 201.904667,43.8786667 201.578,43.832 C201.662,44.2333333 201.704,44.8586667 201.704,45.708 L201.704,45.708 L201.704,49.88 C201.704,50.4306667 201.762333,50.8296667 201.879,51.077 C201.995667,51.3243333 202.196333,51.4876667 202.481,51.567 C202.765667,51.6463333 203.435333,51.686 204.49,51.686 Z M208.83,48.116 L210.286,47.402 C209.371333,46.1886667 208.522,45.0313333 207.738,43.93 L207.738,43.93 L206.66,44.658 C207.658667,45.806 208.382,46.9586667 208.83,48.116 L208.83,48.116 Z M199.142,49.236 C199.468667,47.7986667 199.706667,46.702 199.856,45.946 C200.005333,45.19 200.124333,44.77 200.213,44.686 C200.301667,44.602 200.346,44.5366667 200.346,44.49 C200.346,44.4433333 200.236333,44.42 200.017,44.42 C199.797667,44.42 199.611,44.4106667 199.457,44.392 C199.303,44.3733333 199.090667,44.322 198.82,44.238 C198.829333,45.946 198.437333,47.5093333 197.644,48.928 C198.306667,48.9653333 198.806,49.068 199.142,49.236 Z" id="" fill="#3E3A39" fill-rule="nonzero"></path>
            </g>
        </g>
    </g>
</svg>